<?xml version="1.0" encoding="iso-8859-1"?>
<!-- Generator: Adobe Illustrator 19.0.0, SVG Export Plug-In . SVG Version: 6.00 Build 0)  -->
<svg version="1.1" id="Layer_1" xmlns="http://www.w3.org/2000/svg" xmlns:xlink="http://www.w3.org/1999/xlink" x="0px" y="0px"
	 viewBox="0 0 512 512" style="enable-background:new 0 0 512 512;" xml:space="preserve">
<path style="fill:#331E68;" d="M403.357,512H108.641c-30.498,0-55.309-24.811-55.309-55.309V55.309
	C53.333,24.811,78.143,0,108.641,0h294.717c30.497,0,55.307,24.811,55.307,55.309v300.247c0,7.855-6.369,14.222-14.222,14.222
	s-14.222-6.367-14.222-14.222V55.309c0-14.812-12.052-26.864-26.864-26.864H108.641c-14.812,0-26.864,12.052-26.864,26.864v401.384
	c0,14.811,12.052,26.863,26.864,26.863h294.717c14.812,0,26.864-12.052,26.864-26.864v-30.025c0-7.855,6.369-14.222,14.222-14.222
	s14.222,6.367,14.222,14.222v30.025C458.666,487.189,433.855,512,403.357,512z"/>
<path style="fill:#C9C4E1;" d="M368.355,199.111H143.644c-8.64,0-15.644-7.004-15.644-15.644v-82.489
	c0-8.64,7.004-15.644,15.644-15.644h224.711c8.64,0,15.644,7.004,15.644,15.644v82.489
	C383.999,192.107,376.995,199.111,368.355,199.111z"/>
<g>
	<path style="fill:#331E68;" d="M368.355,213.333H143.644c-16.468,0-29.867-13.397-29.867-29.867v-82.489
		c0-16.469,13.399-29.867,29.867-29.867h224.711c16.468,0,29.867,13.397,29.867,29.867v82.489
		C398.222,199.936,384.823,213.333,368.355,213.333z M143.644,99.556c-0.785,0-1.422,0.639-1.422,1.422v82.489
		c0,0.784,0.637,1.422,1.422,1.422h224.711c0.785,0,1.422-0.639,1.422-1.422v-82.489c0-0.784-0.637-1.422-1.422-1.422H143.644z"/>
	<path style="fill:#331E68;" d="M307.819,321.398c-3.641,0-7.279-1.388-10.057-4.166c-5.554-5.554-5.554-14.559,0-20.113
		l47.596-47.595c5.558-5.554,14.561-5.552,20.114,0c5.554,5.554,5.554,14.559,0,20.113l-47.596,47.595
		C315.098,320.009,311.457,321.398,307.819,321.398z"/>
	<path style="fill:#331E68;" d="M355.414,321.398c-3.641,0-7.279-1.388-10.057-4.166l-47.596-47.595
		c-5.554-5.554-5.554-14.559,0-20.113c5.555-5.554,14.558-5.555,20.115,0l47.596,47.595c5.554,5.554,5.554,14.559,0,20.113
		C362.694,320.009,359.055,321.398,355.414,321.398z"/>
	<path style="fill:#331E68;" d="M214.037,420.787h-67.31c-7.854,0-14.222-6.367-14.222-14.222s6.369-14.222,14.222-14.222h67.31
		c7.854,0,14.222,6.367,14.222,14.222S221.892,420.787,214.037,420.787z"/>
	<path style="fill:#331E68;" d="M180.383,454.443c-7.854,0-14.222-6.367-14.222-14.222v-67.31c0-7.855,6.369-14.222,14.222-14.222
		s14.222,6.367,14.222,14.222v67.31C194.605,448.075,188.236,454.443,180.383,454.443z"/>
	<path style="fill:#331E68;" d="M214.037,297.6h-67.31c-7.854,0-14.222-6.367-14.222-14.222s6.369-14.222,14.222-14.222h67.31
		c7.854,0,14.222,6.367,14.222,14.222S221.892,297.6,214.037,297.6z"/>
	<path style="fill:#331E68;" d="M365.271,399.454h-67.31c-7.854,0-14.222-6.367-14.222-14.222s6.369-14.222,14.222-14.222h67.31
		c7.854,0,14.222,6.367,14.222,14.222S373.125,399.454,365.271,399.454z"/>
	<path style="fill:#331E68;" d="M365.271,442.121h-67.31c-7.854,0-14.222-6.367-14.222-14.222s6.369-14.222,14.222-14.222h67.31
		c7.854,0,14.222,6.367,14.222,14.222S373.125,442.121,365.271,442.121z"/>
</g>
<g>
</g>
<g>
</g>
<g>
</g>
<g>
</g>
<g>
</g>
<g>
</g>
<g>
</g>
<g>
</g>
<g>
</g>
<g>
</g>
<g>
</g>
<g>
</g>
<g>
</g>
<g>
</g>
<g>
</g>
</svg>
