<?xml version="1.0" standalone="no"?>
<!DOCTYPE svg PUBLIC "-//W3C//DTD SVG 20010904//EN"
 "http://www.w3.org/TR/2001/REC-SVG-20010904/DTD/svg10.dtd">
<svg version="1.0" xmlns="http://www.w3.org/2000/svg"
 width="700.000000pt" height="700.000000pt" viewBox="0 0 700.000000 700.000000"
 preserveAspectRatio="xMidYMid meet">
<metadata>
Created by potrace 1.11, written by Peter Selinger 2001-2013
</metadata>
<g transform="translate(0.000000,700.000000) scale(0.100000,-0.100000)"
fill="#000000" stroke="none">
<path d="M1375 6994 c-96 -21 -238 -71 -270 -97 -5 -4 -31 -21 -57 -38 -82
-53 -180 -168 -232 -271 -90 -180 -81 147 -81 -3098 l0 -2875 27 -80 c87 -252
266 -428 518 -507 l75 -23 2145 0 2145 0 75 24 c277 87 479 303 533 571 23
111 24 584 2 637 -49 116 -187 158 -288 86 -80 -55 -82 -64 -84 -357 -2 -148
-8 -276 -14 -300 -29 -111 -113 -205 -221 -249 l-63 -26 -2075 0 c-1813 -1
-2081 1 -2124 14 -133 40 -226 140 -257 272 -12 52 -16 5567 -4 5633 23 131
127 244 261 285 72 22 4154 23 4225 1 131 -40 225 -136 259 -265 9 -34 12
-560 12 -2137 0 -1982 1 -2094 18 -2130 35 -77 92 -115 174 -116 75 -1 127 29
172 97 19 30 19 66 19 2185 l0 2155 -27 80 c-45 130 -101 220 -198 316 -70 70
-103 94 -180 132 -184 90 59 82 -2340 83 -1169 1 -2134 0 -2145 -2z"/>
<path d="M1910 6023 c-184 -30 -324 -170 -348 -348 -9 -72 -8 -1215 2 -1265
13 -64 62 -154 112 -204 53 -53 143 -101 214 -114 25 -5 760 -8 1635 -7 1725
2 1603 -2 1712 53 87 45 179 170 199 272 10 50 11 1204 1 1270 -17 118 -95
232 -200 293 -98 58 -43 56 -1741 55 -859 -1 -1572 -3 -1586 -5z"/>
<path d="M4157 3635 c-79 -20 -139 -94 -140 -173 -2 -80 11 -102 129 -222
l113 -115 -105 -105 c-132 -133 -155 -179 -132 -268 21 -85 98 -143 189 -144
66 0 101 22 219 138 l106 104 94 -96 c119 -120 156 -145 218 -145 119 -1 206
84 204 197 -2 65 -30 109 -141 219 l-101 99 105 106 c59 61 112 123 121 145
23 55 20 117 -8 167 -21 39 -86 94 -112 95 -6 0 -23 3 -39 6 -15 3 -49 -1 -75
-8 -38 -12 -67 -34 -157 -124 l-110 -110 -105 103 c-139 137 -177 156 -273
131z"/>
<path d="M1919 3297 c-24 -13 -57 -42 -73 -65 -26 -36 -30 -52 -30 -105 0 -76
23 -120 86 -163 l41 -29 523 0 522 0 44 30 c129 90 110 279 -34 340 -32 13
-109 15 -536 15 l-499 0 -44 -23z"/>
<path d="M2422 2090 c-45 -10 -94 -46 -122 -89 -22 -33 -24 -47 -28 -181 -1
-80 -4 -154 -5 -164 -2 -18 -12 -20 -157 -21 -121 -1 -162 -5 -185 -17 -122
-65 -149 -209 -58 -308 47 -53 87 -63 261 -63 l142 0 1 -141 c1 -156 3 -175
23 -214 36 -69 108 -107 190 -100 69 6 117 37 151 99 24 44 25 55 25 201 l0
155 154 0 c192 1 238 19 284 109 46 91 11 203 -81 254 -39 23 -52 24 -199 25
l-158 0 -1 145 c-1 164 -3 184 -26 220 -47 72 -131 108 -211 90z"/>
<path d="M4023 1920 c-76 -17 -143 -105 -143 -186 0 -47 28 -111 61 -141 58
-53 61 -53 596 -53 496 0 497 0 542 22 92 46 132 153 91 245 -25 56 -47 78
-100 102 -43 19 -68 20 -530 19 -267 -1 -500 -4 -517 -8z"/>
<path d="M4017 1333 c-131 -38 -178 -198 -90 -307 55 -69 52 -69 588 -71 264
0 498 3 520 8 149 31 203 222 92 328 -54 52 -55 52 -580 53 -359 1 -499 -2
-530 -11z"/>
</g>
</svg>
